<?xml version="1.0" encoding="utf-8" standalone="no"?>
<!DOCTYPE svg PUBLIC "-//W3C//DTD SVG 1.1//EN"
  "http://www.w3.org/Graphics/SVG/1.1/DTD/svg11.dtd">
<svg xmlns:xlink="http://www.w3.org/1999/xlink" width="460.8pt" height="353.525975pt" viewBox="0 0 460.8 353.525975" xmlns="http://www.w3.org/2000/svg" version="1.1">
 <metadata>
  <rdf:RDF xmlns:dc="http://purl.org/dc/elements/1.1/" xmlns:cc="http://creativecommons.org/ns#" xmlns:rdf="http://www.w3.org/1999/02/22-rdf-syntax-ns#">
   <cc:Work>
    <dc:type rdf:resource="http://purl.org/dc/dcmitype/StillImage"/>
    <dc:date>2024-12-31T16:45:45.384936</dc:date>
    <dc:format>image/svg+xml</dc:format>
    <dc:creator>
     <cc:Agent>
      <dc:title>Matplotlib v3.9.2, https://matplotlib.org/</dc:title>
     </cc:Agent>
    </dc:creator>
   </cc:Work>
  </rdf:RDF>
 </metadata>
 <defs>
  <style type="text/css">*{stroke-linejoin: round; stroke-linecap: butt}</style>
 </defs>
 <g id="figure_1">
  <g id="patch_1">
   <path d="M 0 353.525975 
L 460.8 353.525975 
L 460.8 0 
L 0 0 
z
" style="fill: #ffffff"/>
  </g>
  <g id="axes_1">
   <g id="patch_2">
    <path d="M 7.2 339.84 
L 453.6 339.84 
L 453.6 7.2 
L 7.2 7.2 
z
" style="fill: #ffffff"/>
   </g>
   <g id="matplotlib.axis_1"/>
   <g id="matplotlib.axis_2"/>
   <g id="line2d_1">
    <path d="M 27.490909 22.32 
L 30.743961 29.000752 
L 33.997012 36.100181 
L 38.063327 45.58201 
L 42.129641 55.749958 
L 46.195956 66.600568 
L 50.26227 78.111779 
L 54.328584 90.240722 
L 59.208162 105.517252 
L 64.901002 124.131149 
L 74.660157 157.053832 
L 81.979523 181.448733 
L 86.8591 196.97061 
L 90.925414 209.165718 
L 94.178466 218.298632 
L 97.431518 226.77549 
L 100.684569 234.50868 
L 103.124358 239.772521 
L 105.564146 244.54358 
L 108.003935 248.795816 
L 110.443724 252.507197 
L 112.07025 254.672044 
L 113.696775 256.58441 
L 115.323301 258.241089 
L 116.949827 259.639816 
L 118.576353 260.779285 
L 120.202878 261.659152 
L 121.829404 262.280034 
L 123.45593 262.643509 
L 125.082456 262.752097 
L 126.708982 262.609244 
L 128.335507 262.2193 
L 129.962033 261.587486 
L 131.588559 260.719858 
L 133.215085 259.623273 
L 134.84161 258.305335 
L 136.468136 256.774351 
L 138.907925 254.098171 
L 141.347714 250.995591 
L 143.787502 247.50181 
L 146.227291 243.654087 
L 149.480343 238.040468 
L 152.733394 231.961477 
L 156.799709 223.854504 
L 162.492549 211.886644 
L 176.318018 182.455901 
L 181.197595 172.707516 
L 185.26391 165.049347 
L 189.330224 157.885959 
L 192.583276 152.542729 
L 195.836327 147.560193 
L 199.089379 142.945909 
L 202.34243 138.701289 
L 205.595482 134.822499 
L 208.848533 131.301391 
L 212.101585 128.126428 
L 215.354637 125.283584 
L 218.607688 122.757187 
L 221.86074 120.530685 
L 225.113791 118.58733 
L 228.366843 116.910764 
L 231.619894 115.485501 
L 234.872946 114.29731 
L 238.125997 113.333495 
L 241.379049 112.583084 
L 244.632101 112.036926 
L 247.885152 111.687723 
L 251.138204 111.529976 
L 254.391255 111.559893 
L 257.644307 111.775241 
L 260.897358 112.175166 
L 264.15041 112.759986 
L 267.403461 113.530974 
L 270.656513 114.490125 
L 273.909565 115.639928 
L 277.162616 116.983137 
L 280.415668 118.522565 
L 283.668719 120.260875 
L 287.735034 122.716948 
L 291.801348 125.490817 
L 295.867663 128.584288 
L 299.933977 131.997198 
L 304.000291 135.727158 
L 308.066606 139.769381 
L 312.13292 144.116588 
L 316.199235 148.758988 
L 321.078812 154.702109 
L 325.95839 161.026953 
L 330.837967 167.7035 
L 336.530807 175.891924 
L 343.03691 185.703491 
L 350.356276 197.205476 
L 359.302168 211.731536 
L 393.459209 267.720065 
L 401.591838 280.355111 
L 408.911204 291.319562 
L 416.23057 301.859194 
L 422.736673 310.855062 
L 429.242776 319.496699 
L 433.309091 324.72 
L 433.309091 324.72 
" clip-path="url(#pe4b3100b9c)" style="fill: none; stroke: #000000; stroke-width: 1.5; stroke-linecap: square"/>
   </g>
   <g id="text_1">
    <!-- A -->
    <g transform="translate(129.47667 281.863076) scale(0.12 -0.12)">
     <defs>
      <path id="DejaVuSans-41" d="M 2188 4044 
L 1331 1722 
L 3047 1722 
L 2188 4044 
z
M 1831 4666 
L 2547 4666 
L 4325 0 
L 3669 0 
L 3244 1197 
L 1141 1197 
L 716 0 
L 50 0 
L 1831 4666 
z
" transform="scale(0.015625)"/>
     </defs>
     <use xlink:href="#DejaVuSans-41"/>
    </g>
   </g>
   <g id="text_2">
    <!-- B -->
    <g transform="translate(257.002733 92.409446) scale(0.12 -0.12)">
     <defs>
      <path id="DejaVuSans-42" d="M 1259 2228 
L 1259 519 
L 2272 519 
Q 2781 519 3026 730 
Q 3272 941 3272 1375 
Q 3272 1813 3026 2020 
Q 2781 2228 2272 2228 
L 1259 2228 
z
M 1259 4147 
L 1259 2741 
L 2194 2741 
Q 2656 2741 2882 2914 
Q 3109 3088 3109 3444 
Q 3109 3797 2882 3972 
Q 2656 4147 2194 4147 
L 1259 4147 
z
M 628 4666 
L 2241 4666 
Q 2963 4666 3353 4366 
Q 3744 4066 3744 3513 
Q 3744 3084 3544 2831 
Q 3344 2578 2956 2516 
Q 3422 2416 3680 2098 
Q 3938 1781 3938 1306 
Q 3938 681 3513 340 
Q 3088 0 2303 0 
L 628 0 
L 628 4666 
z
" transform="scale(0.015625)"/>
     </defs>
     <use xlink:href="#DejaVuSans-42"/>
    </g>
   </g>
   <g id="text_3">
    <!-- C -->
    <g transform="translate(437.818182 343.83035) scale(0.12 -0.12)">
     <defs>
      <path id="DejaVuSans-43" d="M 4122 4306 
L 4122 3641 
Q 3803 3938 3442 4084 
Q 3081 4231 2675 4231 
Q 1875 4231 1450 3742 
Q 1025 3253 1025 2328 
Q 1025 1406 1450 917 
Q 1875 428 2675 428 
Q 3081 428 3442 575 
Q 3803 722 4122 1019 
L 4122 359 
Q 3791 134 3420 21 
Q 3050 -91 2638 -91 
Q 1578 -91 968 557 
Q 359 1206 359 2328 
Q 359 3453 968 4101 
Q 1578 4750 2638 4750 
Q 3056 4750 3426 4639 
Q 3797 4528 4122 4306 
z
" transform="scale(0.015625)"/>
     </defs>
     <use xlink:href="#DejaVuSans-43"/>
    </g>
   </g>
   <g id="PathCollection_1">
    <defs>
     <path id="m51499f56ca" d="M 0 3 
C 0.795609 3 1.55874 2.683901 2.12132 2.12132 
C 2.683901 1.55874 3 0.795609 3 0 
C 3 -0.795609 2.683901 -1.55874 2.12132 -2.12132 
C 1.55874 -2.683901 0.795609 -3 0 -3 
C -0.795609 -3 -1.55874 -2.683901 -2.12132 -2.12132 
C -2.683901 -1.55874 -3 -0.795609 -3 0 
C -3 0.795609 -2.683901 1.55874 -2.12132 2.12132 
C -1.55874 2.683901 -0.795609 3 0 3 
z
" style="stroke: #000000"/>
    </defs>
    <g clip-path="url(#pe4b3100b9c)">
     <use xlink:href="#m51499f56ca" x="124.96758" y="262.752726" style="stroke: #000000"/>
     <use xlink:href="#m51499f56ca" x="252.493642" y="111.519797" style="stroke: #000000"/>
     <use xlink:href="#m51499f56ca" x="433.309091" y="324.72" style="stroke: #000000"/>
    </g>
   </g>
  </g>
 </g>
 <defs>
  <clipPath id="pe4b3100b9c">
   <rect x="7.2" y="7.2" width="446.4" height="332.64"/>
  </clipPath>
 </defs>
</svg>
